<?xml version="1.0" encoding="utf-8"?>
<!-- Generator: Adobe Illustrator 23.1.0, SVG Export Plug-In . SVG Version: 6.00 Build 0)  -->
<svg version="1.1" id="Capa_6" xmlns="http://www.w3.org/2000/svg" xmlns:xlink="http://www.w3.org/1999/xlink" x="0px" y="0px"
	 viewBox="0 0 550 550" style="enable-background:new 0 0 550 550;" xml:space="preserve">
<style type="text/css">
	.st0{fill:#FFFFFF;}
</style>
<path class="st0" d="M416.4,134.2c-36.5-37.3-87.3-59-141.4-59c-53.7,0-104.1,21.7-140.6,59C97.1,171.5,75,221.9,75,275.6
	s22.1,104.1,59.4,140.6c36.5,36.5,86.9,58.6,140.6,58.6c54.1,0,104.9-22.1,141.4-58.6c36.5-36.5,58.6-86.9,58.6-140.6
	S452.9,171.5,416.4,134.2z M396.6,354.3c-24.4,24.9-57.5,38.2-95.7,38.3v0c-0.1,0-0.1,0-0.2,0c-0.2,0-0.3,0-0.4,0v-0.1
	c-6.3-0.2-12.1-2.7-16.3-7c-4.4-4.4-6.9-10.5-6.9-17.2c0-6.8,2.7-12.9,6.9-17.1c4.2-4.2,10.1-6.9,16.3-7.1v0c0.1,0,0.2,0,0.3,0
	c0.1,0,0.2,0,0.4,0v0c24.8-0.1,46-8.4,61.2-23.9c14.1-14.2,21.8-33.7,21.8-54.9h0.1c0-15.5-6.3-30.8-17.4-41.9
	c-11.1-11.1-26.5-17.4-42.4-17.4c-12.5,0-24,4-34.3,11.8l-14.5,11.1l-14.6-10.9c-10.8-8-22.2-12-35.1-12c-15.9,0-30.8,6.2-42,17.4
	c-10.9,10.9-17.2,26.2-17.2,41.9h0.1c0,21.1,7.7,40.6,21.6,54.9c15.3,15.6,36.7,23.8,62,23.9v0c6.5,0,12.6,2.7,17,7
	c4.4,4.4,6.9,10.5,6.9,17.2c0,6.8-2.7,12.9-6.9,17.1c-4.3,4.3-10.4,7.1-16.8,7.1v0c0,0-0.1,0-0.1,0c0,0,0,0-0.1,0v0
	c-38.6,0-72.1-13.3-96.7-38.4c-22.9-23.4-35.5-54.9-35.5-88.8h-0.1c0-28.4,11.5-56.2,31.4-76.1c20.4-20.4,47.5-31.6,76.3-31.6
	c17.6,0,34.2,4.1,49.5,12.3c15.2-8.1,31.8-12.3,49.1-12.3c28.7,0,56.6,11.5,76.7,31.6c20.1,20.1,31.6,47.8,31.6,76.1h-0.1
	C432.3,299.5,419.6,331,396.6,354.3z M310.6,270.8c0-13.5,10.9-24.4,24.4-24.4s24.4,10.9,24.4,24.4s-10.9,24.4-24.4,24.4
	S310.6,284.3,310.6,270.8z M240.1,270.8c0,13.5-10.9,24.4-24.4,24.4s-24.4-10.9-24.4-24.4s10.9-24.4,24.4-24.4
	S240.1,257.3,240.1,270.8z"/>
</svg>
